<svg width="27" height="32" viewBox="0 0 27 32" fill="none" xmlns="http://www.w3.org/2000/svg">
<path d="M3.4375 20.2V18.8H2V16H3.4375V14.6H6.3125V20.2H3.4375ZM23.5625 16V14.6H20.6875V20.2H23.5625V18.8H25V16H23.5625ZM22.125 7.6H19.0488C18.5313 5.64 16.95 4.1 14.9375 3.596V2H12.0625V3.596C10.05 4.1 8.46875 5.64 7.95125 7.6H4.875V10.4H22.125V7.6ZM22.125 30H4.875C4.875 28.46 6.16875 27.2 7.75 27.2V11.8H19.25V27.2C20.0125 27.2 20.7438 27.495 21.2829 28.0201C21.8221 28.5452 22.125 29.2574 22.125 30Z" fill="#00F0FF"/>
<path fill-rule="evenodd" clip-rule="evenodd" d="M3.4375 22.2C2.51999 22.2 1.74677 21.5822 1.51121 20.7398C0.64291 20.5217 0 19.736 0 18.8V16C0 15.064 0.642913 14.2783 1.51121 14.0602C1.74678 13.2178 2.51999 12.6 3.4375 12.6H5.75V12.4H4.875C3.77043 12.4 2.875 11.5046 2.875 10.4V7.6C2.875 6.49543 3.77043 5.6 4.875 5.6H6.58726C7.34111 4.12483 8.56728 2.93444 10.0625 2.20695V2C10.0625 0.89543 10.9579 0 12.0625 0H14.9375C16.0421 0 16.9375 0.89543 16.9375 2V2.20695C18.4327 2.93444 19.6589 4.12483 20.4127 5.6H22.125C23.2296 5.6 24.125 6.49543 24.125 7.6V10.4C24.125 11.5046 23.2296 12.4 22.125 12.4H21.25V12.6H23.5625C24.48 12.6 25.2532 13.2178 25.4888 14.0602C26.3571 14.2783 27 15.064 27 16V18.8C27 19.736 26.3571 20.5217 25.4888 20.7398C25.2532 21.5822 24.48 22.2 23.5625 22.2H21.25V25.6225C21.7746 25.8547 22.2594 26.1793 22.6783 26.5873C23.5982 27.4832 24.125 28.7096 24.125 30C24.125 31.1046 23.2296 32 22.125 32H4.875C3.77043 32 2.875 31.1046 2.875 30C2.875 28.0286 4.07403 26.3722 5.75 25.6254V22.2H3.4375ZM6.3125 20.2V14.6H3.4375V16H2V18.8H3.4375V20.2H6.3125ZM7.75 27.2C6.97113 27.2 6.262 27.5057 5.7429 28C5.20812 28.5092 4.875 29.2186 4.875 30H22.125C22.125 29.2574 21.8221 28.5452 21.2829 28.0201C21.276 28.0134 21.2691 28.0067 21.2621 28C20.725 27.4875 20.0027 27.2 19.25 27.2V11.8H7.75V27.2ZM23.5625 20.2V18.8H25V16H23.5625V14.6H20.6875V20.2H23.5625ZM22.125 10.4V7.6H19.0488C18.5313 5.64 16.95 4.1 14.9375 3.596V2H12.0625V3.596C10.05 4.1 8.46875 5.64 7.95125 7.6H4.875V10.4H22.125Z" fill="black"/>
</svg>
